<?xml version="1.0" encoding="utf-8"?>
<svg version="1.0" width="723.000000pt" height="306.000000pt" viewBox="25.848 8.968 671.832 285.954" preserveAspectRatio="xMidYMid meet" xmlns="http://www.w3.org/2000/svg">
  <desc>Company Logo Color</desc>
  <title>Logo Color</title>
  <defs>
    <linearGradient gradientUnits="userSpaceOnUse" x1="1385.672" y1="1100" x2="1385.672" y2="2437.225" id="gradient-0" spreadMethod="reflect">
      <stop offset="0" style="stop-color: rgba(61, 78, 237, 1)"/>
      <stop offset="1" style="stop-color: rgba(17, 33, 179, 1)"/>
    </linearGradient>
    <linearGradient gradientUnits="userSpaceOnUse" x1="1385.672" y1="1100" x2="1385.672" y2="2437.225" id="gradient-1">
      <stop offset="0" style="stop-color: #bada55"/>
      <stop offset="1" style="stop-color: #758d29"/>
    </linearGradient>
    <linearGradient gradientUnits="userSpaceOnUse" x1="5839.531" y1="1105" x2="5839.531" y2="2435" id="gradient-2">
      <stop offset="0" style="stop-color: #bada55"/>
      <stop offset="1" style="stop-color: #758d29"/>
    </linearGradient>
    <linearGradient gradientUnits="userSpaceOnUse" x1="4555" y1="1100" x2="4555" y2="2440" id="gradient-3">
      <stop offset="0" style="stop-color: #bada55"/>
      <stop offset="1" style="stop-color: #758d29"/>
    </linearGradient>
    <linearGradient gradientUnits="userSpaceOnUse" x1="3820" y1="1100" x2="3820" y2="2440" id="gradient-4">
      <stop offset="0" style="stop-color: #bada55"/>
      <stop offset="1" style="stop-color: #758d29"/>
    </linearGradient>
    <linearGradient gradientUnits="userSpaceOnUse" x1="2878.707" y1="1100" x2="2878.707" y2="2443.896" id="gradient-5">
      <stop offset="0" style="stop-color: #bada55"/>
      <stop offset="1" style="stop-color: #758d29"/>
    </linearGradient>
  </defs>
  <g transform="translate(0.000000,306.000000) scale(0.100000,-0.100000)" fill="#000000" stroke="none">
    <path d="M805 2945 c-144 -23 -260 -83 -361 -187 -70 -72 -107 -127 -142 -213 -48 -121 -52 -190 -52 -1010 0 -820 4 -889 52 -1010 67 -165 202 -299 368 -365 128 -51 37 -50 2945 -50 1695 1 2738 4 2785 10 159 21 285 85 396 201 100 106 153 219 174 372 14 106 14 1578 0 1684 -21 153 -74 266 -174 372 -111 116 -237 180 -396 201 -123 16 -5494 11 -5595 -5z m5650 -151 c173 -44 324 -200 364 -374 14 -62 14 -1708 0 -1770 -29 -126 -131 -262 -243 -325 -126 -70 120 -65 -2961 -65 -3081 0 -2835 -5 -2961 65 -112 63 -214 199 -243 325 -14 62 -14 1708 0 1770 29 126 131 262 243 325 123 69 -117 64 2956 64 2486 1 2792 -1 2845 -15z"/>
    <path d="M 2676.228 2439 C 2545.228 2425 2434.228 2369 2344.228 2273 C 2298.228 2223 2250.228 2141 2242.228 2098 C 2239.228 2085 2237.228 2075 2236.228 2075 C 2223.228 2075 2218.228 1937 2213.228 1453 L 2209.228 1100 L 2342.228 1100 L 2475.228 1100 L 2473.228 1548 L 2471.228 1995 L 2498.228 2041 C 2532.228 2099 2582.228 2143 2637.228 2164 C 2675.228 2178 2722.228 2180 2981.228 2178 L 3281.228 2175 L 3284.228 2062 C 3286.228 1969 3283.228 1942 3268.228 1907 C 3240.228 1844 3193.228 1796 3134.228 1769 C 3083.228 1746 3072.228 1745 2837.228 1745 L 2592.228 1745 L 2594.228 1620 C 2594.228 1551 2595.228 1492 2595.228 1488 C 2596.228 1485 2714.228 1483 2859.228 1485 C 3156.228 1489 3203.228 1498 3312.228 1568 C 3411.228 1632 3505.228 1755 3520.228 1840 C 3523.228 1854 3525.228 1865 3526.228 1865 C 3538.228 1865 3556.228 2400 3544.228 2423 C 3539.228 2432 3530.228 2441 3523.228 2441 C 3476.228 2446 2720.228 2444 2676.228 2439 Z" style="fill: rgb(118, 41, 143); stroke-miterlimit: 1; stroke: url(#gradient-5);"/>
    <path d="M1101 2424 c-172 -46 -315 -188 -365 -364 -13 -46 -16 -131 -19 -497 -1 -243 -1 -446 1 -452 2 -7 50 -11 133 -11 l129 0 2 193 3 192 394 3 c293 2 397 -1 408 -10 12 -10 13 -42 7 -195 l-7 -183 134 0 134 0 0 668 0 667 -450 2 c-367 1 -460 -1 -504 -13z m696 -457 c1 -192 0 -208 -17 -217 -29 -15 -773 -13 -788 2 -8 8 -12 50 -12 122 0 128 14 169 75 231 75 74 81 75 430 72 l310 -2 2 -208z" style="fill: url(#gradient-0); paint-order: stroke markers; stroke-miterlimit: 1; stroke: url(#gradient-1);"/>
    <path d="M3690 1770 l0 -670 130 0 130 0 0 670 0 670 -130 0 -130 0 0 -670z" style="stroke-miterlimit: 1; stroke: url(#gradient-4); fill: rgb(227, 67, 110);"/>
    <path d="M4464 2172 l-262 -267 -62 0 -63 0 -1 -134 -1 -133 57 4 57 4 273 -273 273 -273 150 0 150 0 -333 333 c-182 182 -332 337 -332 344 0 6 149 158 332 337 l332 326 -155 -1 -154 0 -261 -267z" style="stroke-miterlimit: 1; stroke: url(#gradient-3); fill: rgb(227, 67, 110);"/>
    <path d="M5544 2419 c-180 -56 -311 -196 -359 -384 -15 -58 -22 -345 -10 -377 5 -12 91 -13 525 -10 405 4 523 2 535 -8 19 -16 19 -70 1 -114 -20 -47 -82 -114 -130 -139 -40 -20 -50 -21 -488 -18 l-448 3 0 -134 0 -133 467 2 c313 2 479 7 503 14 173 56 320 210 359 379 16 67 14 387 -1 397 -7 4 -249 8 -538 8 l-525 0 1 46 c1 25 11 64 23 86 26 52 99 116 149 131 28 8 169 12 471 12 l431 0 0 128 0 127 -457 0 c-392 0 -464 -2 -509 -16z" style="fill: rgb(243, 22, 22); stroke-miterlimit: 1; stroke: url(#gradient-2);"/>
    <path d="M2402 983 c-17 -7 -42 -57 -42 -86 0 -16 -7 -26 -20 -30 -12 -3 -20 -14 -20 -27 0 -13 8 -24 20 -27 18 -5 20 -14 20 -94 l0 -89 31 0 32 0 -5 90 -5 90 48 0 49 0 0 -74 c0 -69 2 -76 26 -95 44 -35 104 -26 104 15 0 20 -5 24 -29 24 -34 0 -41 14 -41 81 0 47 1 49 29 49 21 0 31 6 36 23 5 17 15 -2 43 -90 36 -112 36 -113 68 -113 29 0 31 3 43 55 7 30 16 57 21 60 4 3 14 -21 22 -53 13 -53 16 -57 44 -60 l31 -3 33 108 c18 59 35 114 38 121 3 10 -4 13 -29 10 -31 -3 -34 -6 -53 -68 l-19 -65 -16 65 c-16 61 -19 65 -48 68 -30 3 -33 1 -43 -40 -25 -99 -25 -99 -47 -28 -21 72 -12 66 -120 69 -31 1 -33 3 -33 36 0 32 -2 35 -30 35 -28 0 -30 -3 -30 -35 0 -35 0 -35 -46 -35 -43 0 -46 2 -40 23 3 12 6 25 6 30 0 4 14 7 30 7 27 0 30 3 30 30 0 28 -2 30 -37 29 -21 0 -44 -3 -51 -6z"/>
    <path d="M6437 983 c-4 -3 -7 -31 -7 -60 l0 -54 -33 6 c-27 5 -40 1 -65 -20 -62 -52 -67 -152 -11 -208 26 -26 35 -29 67 -23 20 4 53 8 72 9 26 2 35 6 34 20 -1 9 -2 89 -3 177 l-1 160 -23 0 c-13 0 -27 -3 -30 -7z m-9 -230 c3 -60 2 -63 -23 -69 -38 -9 -55 11 -55 65 0 54 14 73 50 69 23 -3 25 -7 28 -65z"/>
    <path d="M1564 960 c-35 -14 -64 -59 -64 -100 0 -30 6 -44 30 -64 17 -14 46 -28 65 -32 41 -7 59 -26 51 -52 -6 -19 -53 -35 -78 -28 -60 19 -68 17 -68 -13 0 -25 6 -31 36 -41 71 -24 155 4 175 58 23 61 -14 123 -84 137 -43 10 -57 23 -57 53 0 24 1 25 65 20 l65 -6 0 29 c0 24 -5 30 -37 38 -45 13 -70 13 -99 1z"/>
    <path d="M1900 952 c-49 -24 -68 -80 -43 -130 15 -29 29 -39 78 -56 46 -16 60 -26 60 -41 0 -31 -45 -47 -97 -36 -46 11 -62 4 -56 -25 8 -43 107 -58 168 -25 49 26 67 75 47 124 -13 30 -24 39 -75 57 -62 23 -76 37 -65 66 5 14 17 16 70 11 l63 -5 0 29 c0 24 -5 30 -37 38 -52 15 -73 14 -113 -7z"/>
    <path d="M5090 947 c-58 -31 -85 -82 -85 -162 1 -75 24 -118 80 -145 74 -36 162 -19 153 29 -3 12 -16 16 -61 17 -70 1 -96 21 -104 82 -12 91 20 132 102 132 54 0 55 1 55 29 0 24 -5 29 -31 35 -49 10 -63 8 -109 -17z"/>
    <path d="M696 805 c-31 -86 -56 -161 -56 -166 0 -6 14 -9 32 -7 26 2 33 9 43 38 11 34 13 35 65 35 52 0 54 -1 65 -35 10 -29 17 -36 43 -38 18 -2 32 0 32 5 0 4 -25 79 -56 166 -55 150 -58 157 -84 157 -26 0 -30 -7 -84 -155z m103 4 c6 -18 11 -34 11 -35 0 -2 -14 -4 -31 -4 -26 0 -30 3 -24 18 4 9 10 25 12 35 8 26 20 21 32 -14z"/>
    <path d="M955 949 c-2 -8 -3 -81 -2 -164 l2 -150 33 -3 32 -3 0 60 c0 59 1 61 25 61 39 0 89 25 114 56 29 36 23 87 -14 123 -22 23 -36 26 -105 29 -61 3 -81 1 -85 -9z m143 -61 c13 -13 16 -54 4 -62 -4 -2 -24 -7 -45 -11 l-37 -7 0 46 c0 45 0 46 33 46 18 0 38 -5 45 -12z"/>
    <path d="M1224 947 c-2 -7 -3 -80 -2 -162 l3 -150 33 -3 32 -3 0 60 c0 34 3 61 8 60 4 0 29 -27 55 -60 42 -52 52 -59 82 -59 19 0 35 3 35 6 0 3 -27 38 -60 78 -33 40 -60 76 -60 81 0 5 25 41 55 81 30 40 55 76 55 79 0 3 -15 5 -34 5 -31 0 -40 -7 -83 -66 l-48 -66 -3 66 c-3 66 -3 66 -33 66 -16 0 -32 -6 -35 -13z"/>
    <path d="M3710 795 l0 -165 30 0 c29 0 29 0 32 68 l3 67 63 3 62 3 0 -71 0 -70 30 0 30 0 0 165 0 165 -30 0 -30 0 0 -65 0 -65 -65 0 -65 0 0 65 0 65 -30 0 -30 0 0 -165z"/>
    <path d="M5890 795 l0 -165 100 0 100 0 0 30 0 30 -70 0 -70 0 0 135 0 135 -30 0 -30 0 0 -165z"/>
    <path d="M6140 905 c0 -28 -4 -35 -20 -35 -16 0 -20 -7 -20 -30 0 -23 4 -30 20 -30 18 0 20 -7 20 -75 0 -88 17 -115 74 -115 60 0 77 55 19 62 -27 3 -28 5 -31 65 -3 61 -3 62 25 65 22 2 29 9 31 31 3 24 0 27 -27 27 -29 0 -31 3 -31 35 0 32 -2 35 -30 35 -28 0 -30 -3 -30 -35z"/>
    <path d="M2164 871 c-54 -23 -85 -103 -65 -164 18 -53 55 -82 106 -82 106 0 153 147 72 223 -27 26 -81 36 -113 23z m70 -67 c18 -18 21 -76 6 -105 -12 -21 -50 -25 -68 -7 -15 15 -16 82 -2 109 13 23 43 25 64 3z"/>
    <path d="M3040 872 c-17 -6 -26 -16 -28 -35 -3 -27 -2 -27 37 -21 27 4 46 2 56 -6 24 -20 18 -25 -26 -26 -79 -1 -117 -87 -63 -141 20 -20 31 -24 57 -18 18 3 49 6 70 5 l37 0 0 98 c0 91 -2 100 -24 121 -25 24 -77 34 -116 23z m78 -164 c-2 -17 -11 -24 -30 -26 -24 -3 -28 0 -28 22 0 22 4 26 31 26 26 0 30 -3 27 -22z"/>
    <path d="M3308 866 c-16 -8 -28 -11 -28 -5 0 5 -11 9 -25 9 l-25 0 0 -120 0 -120 30 0 30 0 0 78 c0 80 9 102 41 102 24 0 42 26 34 50 -8 24 -20 25 -57 6z"/>
    <path d="M3444 871 c-84 -36 -97 -185 -21 -231 58 -36 147 -21 147 24 0 24 -2 25 -50 19 -51 -6 -80 6 -80 33 0 11 17 14 65 14 47 0 67 4 71 14 8 21 -14 91 -34 109 -23 21 -70 29 -98 18z m56 -55 c0 -2 3 -11 6 -20 5 -13 -1 -16 -30 -16 -38 0 -44 8 -24 28 11 11 48 17 48 8z"/>
    <path d="M4074 871 c-59 -25 -86 -106 -60 -175 55 -144 247 -59 207 91 -6 22 -21 49 -34 62 -27 25 -81 35 -113 22z m70 -67 c18 -18 21 -76 6 -105 -12 -21 -50 -25 -68 -7 -15 15 -16 82 -2 109 13 23 43 25 64 3z"/>
    <path d="M4533 868 c-28 -13 -47 -60 -39 -93 5 -18 20 -32 51 -45 28 -12 45 -26 45 -36 0 -14 -8 -16 -50 -12 -47 5 -50 4 -50 -18 0 -52 94 -61 141 -15 48 49 36 98 -31 125 -24 9 -40 22 -40 32 0 14 7 15 45 10 43 -7 45 -6 45 19 0 39 -65 58 -117 33z"/>
    <path d="M4734 861 c-76 -46 -71 -186 8 -227 36 -19 115 -14 129 7 20 31 5 44 -44 41 -49 -4 -77 9 -77 34 0 11 16 14 65 14 l65 0 0 36 c0 62 -45 114 -98 114 -9 0 -31 -9 -48 -19z m74 -63 c3 -14 -3 -18 -27 -18 -29 0 -41 17 -24 34 13 13 48 1 51 -16z"/>
    <path d="M5324 866 c-82 -36 -85 -189 -4 -231 80 -41 160 16 160 115 0 52 -22 96 -60 115 -35 18 -55 18 -96 1z m77 -62 c7 -9 14 -33 14 -54 0 -42 -18 -70 -45 -70 -27 0 -43 26 -43 70 0 63 42 93 74 54z"/>
    <path d="M4260 776 c0 -86 2 -98 24 -123 21 -24 32 -28 76 -28 44 0 55 4 76 28 22 25 24 37 24 123 l0 94 -30 0 -30 0 0 -69 c0 -82 -12 -121 -38 -121 -34 0 -42 21 -42 107 l0 83 -30 0 -30 0 0 -94z"/>
    <path d="M5524 686 c-12 -31 1 -51 34 -54 31 -3 32 -2 32 32 0 33 -2 36 -30 36 -17 0 -33 -6 -36 -14z"/>
    <path d="M5643 615 l-20 -85 32 0 c31 0 32 2 53 74 12 41 22 79 22 85 0 6 -15 11 -33 11 l-33 0 -21 -85z"/>
    <path d="M 6552.871 680.316 C 6540.871 649.316 6553.871 629.316 6586.871 626.316 C 6617.871 623.316 6618.871 624.316 6618.871 658.316 C 6618.871 691.316 6616.871 694.316 6588.871 694.316 C 6571.871 694.316 6555.871 688.316 6552.871 680.316 Z"/>
  </g>
</svg>